<svg xmlns="http://www.w3.org/2000/svg" width="46.4" height="51.396" viewBox="0 0 46.4 51.396">
    <defs>
        <style>
            .cls-1{fill:#96c45a}
        </style>
    </defs>
    <g id="Group_168" transform="rotate(18.01 1169.954 -4240.701)">
        <path id="Path_31" d="M14224.591-922.369s3.975 5.257 5.191 7.247a24.022 24.022 0 0 1 3.926 9.707 40.4 40.4 0 0 1 0 11.591l3.9-3a49.917 49.917 0 0 0-3.569-13.825c-2.89-6.448-6.107-9.3-7.987-11.967-1.12-1.593-1.165-1.239-1.165-1.239z" class="cls-1" transform="rotate(2 -23392.816 -367916.043)"/>
        <ellipse id="Ellipse_4" cx="11.592" cy="10.74" class="cls-1" rx="11.592" ry="10.74" transform="rotate(-44.03 889.61 -1634.768)"/>
        <ellipse id="Ellipse_7" cx="8.918" cy="8.188" fill="#dbc22c" rx="8.918" ry="8.188" transform="rotate(-44.03 892.673 -1636.96)"/>
        <ellipse id="Ellipse_6" cx="9.866" cy="8.759" class="cls-1" rx="9.866" ry="8.759" transform="rotate(-1 9935.846 -78719.96)"/>
    </g>
</svg>
