<svg xmlns="http://www.w3.org/2000/svg" xmlns:xlink="http://www.w3.org/1999/xlink" width="1366" height="768" viewBox="0 0 1366 768">
  <defs>
    <filter id="Path_86" x="-123.401" y="353.104" width="1463.969" height="562.295" filterUnits="userSpaceOnUse">
      <feOffset dx="2" dy="-2" input="SourceAlpha"/>
      <feGaussianBlur stdDeviation="10" result="blur"/>
      <feFlood flood-opacity="0.161"/>
      <feComposite operator="in" in2="blur"/>
      <feComposite in="SourceGraphic"/>
    </filter>
    <filter id="Path_31" x="950.188" y="323.979" width="161.192" height="195.891" filterUnits="userSpaceOnUse">
      <feOffset dx="-5" dy="5" input="SourceAlpha"/>
      <feGaussianBlur stdDeviation="5.5" result="blur-2"/>
      <feFlood flood-opacity="0.161"/>
      <feComposite operator="in" in2="blur-2"/>
      <feComposite in="SourceGraphic"/>
    </filter>
    <filter id="Ellipse_4" x="975.604" y="229.44" width="182.463" height="175.115" filterUnits="userSpaceOnUse">
      <feOffset dx="-6" dy="2" input="SourceAlpha"/>
      <feGaussianBlur stdDeviation="6" result="blur-3"/>
      <feFlood flood-opacity="0.161"/>
      <feComposite operator="in" in2="blur-3"/>
      <feComposite in="SourceGraphic"/>
    </filter>
    <radialGradient id="radial-gradient" cx="0.15" cy="0.545" r="1.093" gradientTransform="matrix(0.999, -0.053, 0.053, 0.999, -0.029, 0.009)" gradientUnits="objectBoundingBox">
      <stop offset="0" stop-color="#d5c036"/>
      <stop offset="1" stop-color="#96c45a"/>
    </radialGradient>
    <filter id="Ellipse_7" x="968.595" y="226.539" width="194.317" height="188.02" filterUnits="userSpaceOnUse">
      <feOffset dx="-3" dy="3" input="SourceAlpha"/>
      <feGaussianBlur stdDeviation="11.5" result="blur-4"/>
      <feFlood flood-opacity="0.161"/>
      <feComposite operator="in" in2="blur-4"/>
      <feComposite in="SourceGraphic"/>
    </filter>
    <filter id="Ellipse_6" x="873.237" y="271.42" width="167.864" height="160.116" filterUnits="userSpaceOnUse">
      <feOffset dx="-10" dy="7" input="SourceAlpha"/>
      <feGaussianBlur stdDeviation="6" result="blur-5"/>
      <feFlood flood-opacity="0.161"/>
      <feComposite operator="in" in2="blur-5"/>
      <feComposite in="SourceGraphic"/>
    </filter>
    <filter id="Rectangle_185" x="963.261" y="428.348" width="181.073" height="176.817" filterUnits="userSpaceOnUse">
      <feOffset dx="3" dy="3" input="SourceAlpha"/>
      <feGaussianBlur stdDeviation="3" result="blur-6"/>
      <feFlood flood-opacity="0.161"/>
      <feComposite operator="in" in2="blur-6"/>
      <feComposite in="SourceGraphic"/>
    </filter>
    <filter id="Rectangle_186" x="954.32" y="427.373" width="181.699" height="91.483" filterUnits="userSpaceOnUse">
      <feOffset dy="3" input="SourceAlpha"/>
      <feGaussianBlur stdDeviation="3" result="blur-7"/>
      <feFlood flood-opacity="0.161"/>
      <feComposite operator="in" in2="blur-7"/>
      <feComposite in="SourceGraphic"/>
    </filter>
    <filter id="Path_87" x="-90.618" y="414.029" width="1554.495" height="544.489" filterUnits="userSpaceOnUse">
      <feOffset dx="3" dy="-2" input="SourceAlpha"/>
      <feGaussianBlur stdDeviation="10" result="blur-8"/>
      <feFlood flood-opacity="0.102"/>
      <feComposite operator="in" in2="blur-8"/>
      <feComposite in="SourceGraphic"/>
    </filter>
    <clipPath id="clip-HOME1_5">
      <rect width="1366" height="768"/>
    </clipPath>
  </defs>
  <g id="HOME1_5" data-name="HOME1 – 5" clip-path="url(#clip-HOME1_5)">
    <rect width="1366" height="768" fill="#ebde9e"/>
    <g id="Group_679" data-name="Group 679">
      <path id="Path_88" data-name="Path 88" d="M1405.934,298.3s-61.1-13.461-141.482,23.078-137.124,99.75-220.849,108.079C896.974,444.043,794.544,298.689,654.68,310.734s-178.621,96.387-287.8,101.137-130.5-53.98-215.631-84.892-89.4-56.929-117.966-90.821c-22.409-26.594-49.215-12.174-21.4-51.779C74.816,94.773,417.581,0,417.581,0Z" transform="translate(1669.336 785.028) rotate(178)" fill="#7e969a"/>
      <path id="Path_90" data-name="Path 90" d="M366.878,411.871c-109.182,4.75-130.5-53.98-215.631-84.892s-89.4-56.929-117.966-90.821c-22.409-26.594-49.215-12.174-21.4-51.779C74.816,94.773,417.581,0,417.581,0S476.059,407.121,366.878,411.871Z" transform="translate(387.336 798.028) rotate(178)" fill="#7e969a"/>
      <g transform="matrix(1, 0, 0, 1, 0, 0)" filter="url(#Path_86)">
        <path id="Path_86-2" data-name="Path 86" d="M1996.643-11490.959c-133.915-12.979-181.685-105.393-328.313-119.979s-249.059,130.768-388.923,118.723-178.621-96.387-287.8-101.137-130.5,53.98-215.631,84.892-89.4,56.929-117.966,90.821c-22.409,26.594-49.215,12.174-21.4,51.779,62.933,89.605,405.7,184.378,405.7,184.378S2130.559-11477.98,1996.643-11490.959Z" transform="translate(-1304.47 11948.46) rotate(3)" fill="#87a5a0"/>
      </g>
      <g id="盆栽" transform="translate(8.348 -2.184) rotate(-8)">
        <g id="Group_668" data-name="Group 668" transform="translate(799.268 323.083)">
          <g id="Group_41" data-name="Group 41" transform="matrix(0.891, 0.454, -0.454, 0.891, 118.951, 0)">
            <g transform="matrix(0.95, -0.33, 0.33, 0.95, -972, 133.78)" filter="url(#Path_31)">
              <path id="Path_31-2" data-name="Path 31" d="M0,13.972,34.247,72.9l40.334,69.591,11.935-6.081S24.829,29.856,13.313,9.635C6.448-2.422,6.171.253,6.171.253Z" transform="translate(1018.08 335.48) rotate(19)" fill="#96c45a"/>
            </g>
            <g transform="matrix(0.95, -0.33, 0.33, 0.95, -972, 133.78)" filter="url(#Ellipse_4)">
              <ellipse id="Ellipse_4-2" data-name="Ellipse 4" cx="63.217" cy="58.571" rx="63.217" ry="58.571" transform="translate(999.6 269.57) rotate(-11)" fill="#96c45a"/>
            </g>
            <g transform="matrix(0.95, -0.33, 0.33, 0.95, -972, 133.78)" filter="url(#Ellipse_7)">
              <ellipse id="Ellipse_7-2" data-name="Ellipse 7" cx="54.091" cy="50.109" rx="54.091" ry="50.109" transform="translate(1006.1 278.68) rotate(-11)" fill="url(#radial-gradient)"/>
            </g>
            <g transform="matrix(0.95, -0.33, 0.33, 0.95, -972, 133.78)" filter="url(#Ellipse_6)">
              <ellipse id="Ellipse_6-2" data-name="Ellipse 6" cx="53.804" cy="47.77" rx="53.804" ry="47.77" transform="translate(930.76 282.42) rotate(18)" fill="#96c45a"/>
            </g>
          </g>
          <g id="Group_667" data-name="Group 667" transform="translate(82.42 263.07)">
            <g transform="matrix(0.99, 0.14, -0.14, 0.99, -890.26, -585.15)" filter="url(#Rectangle_185)">
              <rect id="Rectangle_185-2" data-name="Rectangle 185" width="145" height="140" rx="5" transform="translate(969.26 454.53) rotate(-8)" fill="#a3765c"/>
            </g>
            <g transform="matrix(0.99, 0.14, -0.14, 0.99, -890.26, -585.15)" filter="url(#Rectangle_186)">
              <rect id="Rectangle_186-2" data-name="Rectangle 186" width="158" height="52" rx="5" transform="translate(963.32 455.36) rotate(-8)" fill="#a97f67"/>
            </g>
          </g>
        </g>
        <g id="Group_669" data-name="Group 669" transform="translate(926.8 646.304)">
          <ellipse id="Ellipse_70" data-name="Ellipse 70" cx="6" cy="6.5" rx="6" ry="6.5" transform="translate(55.2 -0.304)" fill="#2c2d2b"/>
          <path id="Path_84" data-name="Path 84" d="M4.566-3.2S9.131,3.123,9.131,6.682s-2.044,6.445-4.566,6.445S0,10.241,0,6.682,4.566-3.2,4.566-3.2Z" transform="translate(62.835 22.319)" fill="#b3c2c1"/>
          <circle id="Ellipse_71" data-name="Ellipse 71" cx="6.5" cy="6.5" r="6.5" transform="translate(0.2 -0.304)" fill="#2c2d2b"/>
        </g>
        <path id="Path_83" data-name="Path 83" d="M2009.006-11378.306s2.92-9.393,10.56-9.325,10.187,9.325,10.187,9.325" transform="translate(-1058.568 12047.221)" fill="none" stroke="#f18a8a" stroke-linecap="round" stroke-width="2"/>
        <path id="Path_85" data-name="Path 85" d="M13.636,0a29.319,29.319,0,0,1-6.1,5.682A27.933,27.933,0,0,1,0,8.935" transform="matrix(0.985, 0.174, -0.174, 0.985, 923.531, 628.15)" fill="none" stroke="#2c2d2b" stroke-linecap="round" stroke-width="2"/>
      </g>
      <g transform="matrix(1, 0, 0, 1, 0, 0)" filter="url(#Path_87)">
        <path id="Path_87-2" data-name="Path 87" d="M1072-11628s133.925-3,211.355,51.914,97.346,98.105,231.261,85.127,151.5-107.318,298.128-121.9,175.958,92.744,315.822,80.7,174.94-103.884,260.037-127.843,80.349,32.007,80.349,32.007,33.925,257.251,33.925,266.179-33.925,180.34-33.925,180.34l-1460.57-17.855,12.5-398.176Z" transform="translate(-1072 12112)" fill="#8bbbb3"/>
      </g>
    </g>
  </g>
</svg>
