<svg xmlns="http://www.w3.org/2000/svg" xmlns:xlink="http://www.w3.org/1999/xlink" width="360" height="640" viewBox="0 0 360 640">
  <defs>
    <filter id="Path_86" x="-211.401" y="384.933" width="602.265" height="253.98" filterUnits="userSpaceOnUse">
      <feOffset dx="2" dy="-2" input="SourceAlpha"/>
      <feGaussianBlur stdDeviation="10" result="blur"/>
      <feFlood flood-opacity="0.161"/>
      <feComposite operator="in" in2="blur"/>
      <feComposite in="SourceGraphic"/>
    </filter>
    <filter id="Path_31" x="190.48" y="390.409" width="93.365" height="109.705" filterUnits="userSpaceOnUse">
      <feOffset dx="-5" dy="5" input="SourceAlpha"/>
      <feGaussianBlur stdDeviation="5.5" result="blur-2"/>
      <feFlood flood-opacity="0.161"/>
      <feComposite operator="in" in2="blur-2"/>
      <feComposite in="SourceGraphic"/>
    </filter>
    <filter id="Ellipse_4" x="201.126" y="343.511" width="104.969" height="101.509" filterUnits="userSpaceOnUse">
      <feOffset dx="-6" dy="2" input="SourceAlpha"/>
      <feGaussianBlur stdDeviation="6" result="blur-3"/>
      <feFlood flood-opacity="0.161"/>
      <feComposite operator="in" in2="blur-3"/>
      <feComposite in="SourceGraphic"/>
    </filter>
    <radialGradient id="radial-gradient" cx="0.15" cy="0.545" r="1.093" gradientTransform="matrix(0.999, -0.053, 0.053, 0.999, -0.029, 0.009)" gradientUnits="objectBoundingBox">
      <stop offset="0" stop-color="#d5c036"/>
      <stop offset="1" stop-color="#96c45a"/>
    </radialGradient>
    <filter id="Ellipse_7" x="190.683" y="333.942" width="128.012" height="125.046" filterUnits="userSpaceOnUse">
      <feOffset dx="-3" dy="3" input="SourceAlpha"/>
      <feGaussianBlur stdDeviation="11.5" result="blur-4"/>
      <feFlood flood-opacity="0.161"/>
      <feComposite operator="in" in2="blur-4"/>
      <feComposite in="SourceGraphic"/>
    </filter>
    <filter id="Ellipse_6" x="150.805" y="365.924" width="98.095" height="94.446" filterUnits="userSpaceOnUse">
      <feOffset dx="-10" dy="7" input="SourceAlpha"/>
      <feGaussianBlur stdDeviation="6" result="blur-5"/>
      <feFlood flood-opacity="0.161"/>
      <feComposite operator="in" in2="blur-5"/>
      <feComposite in="SourceGraphic"/>
    </filter>
    <filter id="Rectangle_185" x="204.837" y="442.466" width="94.791" height="92.787" filterUnits="userSpaceOnUse">
      <feOffset dx="3" dy="3" input="SourceAlpha"/>
      <feGaussianBlur stdDeviation="3" result="blur-6"/>
      <feFlood flood-opacity="0.161"/>
      <feComposite operator="in" in2="blur-6"/>
      <feComposite in="SourceGraphic"/>
    </filter>
    <filter id="Rectangle_186" x="199.04" y="442.008" width="95.086" height="52.603" filterUnits="userSpaceOnUse">
      <feOffset dy="3" input="SourceAlpha"/>
      <feGaussianBlur stdDeviation="3" result="blur-7"/>
      <feFlood flood-opacity="0.161"/>
      <feComposite operator="in" in2="blur-7"/>
      <feComposite in="SourceGraphic"/>
    </filter>
    <filter id="Path_87" x="-210.298" y="435.438" width="632.404" height="279.55" filterUnits="userSpaceOnUse">
      <feOffset dx="3" dy="-2" input="SourceAlpha"/>
      <feGaussianBlur stdDeviation="10" result="blur-8"/>
      <feFlood flood-opacity="0.102"/>
      <feComposite operator="in" in2="blur-8"/>
      <feComposite in="SourceGraphic"/>
    </filter>
    <clipPath id="clip-Android_Mobile_22">
      <rect width="360" height="640"/>
    </clipPath>
  </defs>
  <g id="Android_Mobile_22" data-name="Android Mobile – 22" clip-path="url(#clip-Android_Mobile_22)">
    <rect width="360" height="640" fill="#ebde9e"/>
    <g id="Group_677" data-name="Group 677" transform="translate(-2911 12777)">
      <path id="Path_88" data-name="Path 88" d="M543.026,115.215s-23.6-5.2-54.646,8.914-52.962,38.527-85.3,41.744c-56.634,5.634-96.2-50.507-150.217-45.855s-68.99,37.228-111.16,39.063-50.4-20.849-83.285-32.788S23.886,104.3,12.854,91.213c-8.655-10.272-19.009-4.7-8.265-20C28.9,36.6,161.286,0,161.286,0Z" transform="translate(3353.208 -12206.628) rotate(178)" fill="#7e969a"/>
      <g transform="matrix(1, 0, 0, 1, 2911, -12777)" filter="url(#Path_86)">
        <path id="Path_86-2" data-name="Path 86" d="M529.887,46.738C478.164,41.726,459.713,6.032,403.08.4S314.8,54.956,260.775,50.3,183.872,9.025,141.7,7.19,91.3,28.04,58.417,39.979,23.886,61.967,12.854,75.058c-8.655,10.271-19.009,4.7-8.265,20,24.307,34.609,156.7,71.214,156.7,71.214S581.61,51.751,529.887,46.738Z" transform="translate(-174.7 416.91) rotate(3)" fill="#87a5a0"/>
      </g>
      <g id="盆栽" transform="translate(3063.229 -12435.818) rotate(-8)">
        <g id="Group_668" data-name="Group 668" transform="translate(0 0)">
          <g id="Group_41" data-name="Group 41" transform="matrix(0.891, 0.454, -0.454, 0.891, 56.014, 0)">
            <g transform="matrix(0.95, -0.33, 0.33, 0.95, -304.92, -247.6)" filter="url(#Path_31)">
              <path id="Path_31-2" data-name="Path 31" d="M0,6.579,16.127,34.327,35.12,67.1l5.62-2.864S11.692,14.059,6.269,4.537C3.036-1.141,2.906.119,2.906.119Z" transform="translate(233.83 401.91) rotate(19)" fill="#96c45a"/>
            </g>
            <g transform="matrix(0.95, -0.33, 0.33, 0.95, -304.92, -247.6)" filter="url(#Ellipse_4)">
              <ellipse id="Ellipse_4-2" data-name="Ellipse 4" cx="29.769" cy="27.581" rx="29.769" ry="27.581" transform="translate(225.13 370.87) rotate(-11)" fill="#96c45a"/>
            </g>
            <g transform="matrix(0.95, -0.33, 0.33, 0.95, -304.92, -247.6)" filter="url(#Ellipse_7)">
              <ellipse id="Ellipse_7-2" data-name="Ellipse 7" cx="25.472" cy="23.596" rx="25.472" ry="23.596" transform="translate(228.18 375.16) rotate(-11)" fill="url(#radial-gradient)"/>
            </g>
            <g transform="matrix(0.95, -0.33, 0.33, 0.95, -304.92, -247.6)" filter="url(#Ellipse_6)">
              <ellipse id="Ellipse_6-2" data-name="Ellipse 6" cx="25.336" cy="22.495" rx="25.336" ry="22.495" transform="translate(192.71 376.92) rotate(18)" fill="#96c45a"/>
            </g>
          </g>
          <g id="Group_667" data-name="Group 667" transform="translate(38.959 123.808)">
            <g transform="matrix(0.99, 0.14, -0.14, 0.99, -142.22, -482.86)" filter="url(#Rectangle_185)">
              <rect id="Rectangle_185-2" data-name="Rectangle 185" width="68.281" height="65.926" rx="5" transform="translate(210.84 457.97) rotate(-8)" fill="#a3765c"/>
            </g>
            <g transform="matrix(0.99, 0.14, -0.14, 0.99, -142.22, -482.86)" filter="url(#Rectangle_186)">
              <rect id="Rectangle_186-2" data-name="Rectangle 186" width="74.402" height="24.487" rx="5" transform="translate(208.04 458.36) rotate(-8)" fill="#a97f67"/>
            </g>
          </g>
        </g>
        <g id="Group_669" data-name="Group 669" transform="translate(60.149 152.062)">
          <ellipse id="Ellipse_70" data-name="Ellipse 70" cx="2.825" cy="3.061" rx="2.825" ry="3.061" transform="translate(25.9 0)" fill="#2c2d2b"/>
          <path id="Path_84" data-name="Path 84" d="M2.15,0S4.3,2.979,4.3,4.655,3.337,7.69,2.15,7.69,0,6.331,0,4.655,2.15,0,2.15,0Z" transform="translate(29.495 9.145)" fill="#b3c2c1"/>
          <circle id="Ellipse_71" data-name="Ellipse 71" cx="3.061" cy="3.061" r="3.061" transform="translate(0 0)" fill="#2c2d2b"/>
        </g>
        <path id="Path_83" data-name="Path 83" d="M0,4.392S1.375-.032,4.973,0s4.8,4.392,4.8,4.392" transform="translate(71.186 158.461)" fill="none" stroke="#f18a8a" stroke-linecap="round" stroke-width="2"/>
        <path id="Path_85" data-name="Path 85" d="M6.422,0A13.806,13.806,0,0,1,3.551,2.675,13.154,13.154,0,0,1,0,4.207" transform="matrix(0.985, 0.174, -0.174, 0.985, 58.516, 143.657)" fill="none" stroke="#2c2d2b" stroke-linecap="round" stroke-width="2"/>
      </g>
      <g transform="matrix(1, 0, 0, 1, 2911, -12777)" filter="url(#Path_87)">
        <path id="Path_87-2" data-name="Path 87" d="M1032.954-11651.3s51.727-1.158,81.634,20.051,45.757,34.118,93.269,32.243,56.889-39.386,111.2-46.448,67.962,35.822,121.983,31.17,67.569-40.125,100.436-49.379,31.034,12.363,31.034,12.363,13.1,99.359,13.1,102.809v102.074l-562.019-4.876-10.385-188.231Z" transform="translate(-1196.51 12133.41)" fill="#8bbbb3"/>
      </g>
    </g>
  </g>
</svg>
