<svg xmlns="http://www.w3.org/2000/svg" xmlns:xlink="http://www.w3.org/1999/xlink" width="1366" height="768" viewBox="0 0 1366 768">
  <defs>
    <filter id="Path_93" x="-291.904" y="351.424" width="1972.511" height="608.431" filterUnits="userSpaceOnUse">
      <feOffset input="SourceAlpha"/>
      <feGaussianBlur stdDeviation="5" result="blur"/>
      <feFlood flood-opacity="0.161"/>
      <feComposite operator="in" in2="blur"/>
      <feComposite in="SourceGraphic"/>
    </filter>
    <filter id="Path_92" x="-53.54" y="468.153" width="1720.341" height="372.349" filterUnits="userSpaceOnUse">
      <feOffset input="SourceAlpha"/>
      <feGaussianBlur stdDeviation="5" result="blur-2"/>
      <feFlood flood-opacity="0.161"/>
      <feComposite operator="in" in2="blur-2"/>
      <feComposite in="SourceGraphic"/>
    </filter>
    <filter id="Path_31" x="226.67" y="495.792" width="99.903" height="113.757" filterUnits="userSpaceOnUse">
      <feOffset dx="-5" dy="5" input="SourceAlpha"/>
      <feGaussianBlur stdDeviation="5.5" result="blur-3"/>
      <feFlood flood-opacity="0.161"/>
      <feComposite operator="in" in2="blur-3"/>
      <feComposite in="SourceGraphic"/>
    </filter>
    <filter id="Ellipse_4" x="248.428" y="456.588" width="103.389" height="99.351" filterUnits="userSpaceOnUse">
      <feOffset dx="-6" dy="2" input="SourceAlpha"/>
      <feGaussianBlur stdDeviation="6" result="blur-4"/>
      <feFlood flood-opacity="0.161"/>
      <feComposite operator="in" in2="blur-4"/>
      <feComposite in="SourceGraphic"/>
    </filter>
    <radialGradient id="radial-gradient" cx="0.15" cy="0.545" r="1.093" gradientTransform="matrix(0.999, -0.053, 0.053, 0.999, -0.029, 0.009)" gradientUnits="objectBoundingBox">
      <stop offset="0" stop-color="#d5c036"/>
      <stop offset="1" stop-color="#96c45a"/>
    </radialGradient>
    <filter id="Ellipse_7" x="237.522" y="446.272" width="126.661" height="123.198" filterUnits="userSpaceOnUse">
      <feOffset dx="-3" dy="3" input="SourceAlpha"/>
      <feGaussianBlur stdDeviation="11.5" result="blur-5"/>
      <feFlood flood-opacity="0.161"/>
      <feComposite operator="in" in2="blur-5"/>
      <feComposite in="SourceGraphic"/>
    </filter>
    <filter id="Ellipse_6" x="190.889" y="459.694" width="103.349" height="100.497" filterUnits="userSpaceOnUse">
      <feOffset dx="-10" dy="7" input="SourceAlpha"/>
      <feGaussianBlur stdDeviation="6" result="blur-6"/>
      <feFlood flood-opacity="0.161"/>
      <feComposite operator="in" in2="blur-6"/>
      <feComposite in="SourceGraphic"/>
    </filter>
    <filter id="Path_31-2" x="315.324" y="584.897" width="99.903" height="113.757" filterUnits="userSpaceOnUse">
      <feOffset dx="-5" dy="5" input="SourceAlpha"/>
      <feGaussianBlur stdDeviation="5.5" result="blur-7"/>
      <feFlood flood-opacity="0.161"/>
      <feComposite operator="in" in2="blur-7"/>
      <feComposite in="SourceGraphic"/>
    </filter>
    <filter id="Ellipse_4-2" x="337.082" y="545.693" width="103.389" height="99.351" filterUnits="userSpaceOnUse">
      <feOffset dx="-6" dy="2" input="SourceAlpha"/>
      <feGaussianBlur stdDeviation="6" result="blur-8"/>
      <feFlood flood-opacity="0.161"/>
      <feComposite operator="in" in2="blur-8"/>
      <feComposite in="SourceGraphic"/>
    </filter>
    <filter id="Ellipse_7-2" x="326.176" y="535.378" width="126.661" height="123.198" filterUnits="userSpaceOnUse">
      <feOffset dx="-3" dy="3" input="SourceAlpha"/>
      <feGaussianBlur stdDeviation="11.5" result="blur-9"/>
      <feFlood flood-opacity="0.161"/>
      <feComposite operator="in" in2="blur-9"/>
      <feComposite in="SourceGraphic"/>
    </filter>
    <filter id="Ellipse_6-2" x="279.542" y="548.8" width="103.349" height="100.497" filterUnits="userSpaceOnUse">
      <feOffset dx="-10" dy="7" input="SourceAlpha"/>
      <feGaussianBlur stdDeviation="6" result="blur-10"/>
      <feFlood flood-opacity="0.161"/>
      <feComposite operator="in" in2="blur-10"/>
      <feComposite in="SourceGraphic"/>
    </filter>
    <filter id="Path_31-3" x="432.928" y="499.596" width="99.903" height="113.757" filterUnits="userSpaceOnUse">
      <feOffset dx="-5" dy="5" input="SourceAlpha"/>
      <feGaussianBlur stdDeviation="5.5" result="blur-11"/>
      <feFlood flood-opacity="0.161"/>
      <feComposite operator="in" in2="blur-11"/>
      <feComposite in="SourceGraphic"/>
    </filter>
    <filter id="Ellipse_4-3" x="454.687" y="460.392" width="103.389" height="99.351" filterUnits="userSpaceOnUse">
      <feOffset dx="-6" dy="2" input="SourceAlpha"/>
      <feGaussianBlur stdDeviation="6" result="blur-12"/>
      <feFlood flood-opacity="0.161"/>
      <feComposite operator="in" in2="blur-12"/>
      <feComposite in="SourceGraphic"/>
    </filter>
    <filter id="Ellipse_7-3" x="443.78" y="450.076" width="126.661" height="123.198" filterUnits="userSpaceOnUse">
      <feOffset dx="-3" dy="3" input="SourceAlpha"/>
      <feGaussianBlur stdDeviation="11.5" result="blur-13"/>
      <feFlood flood-opacity="0.161"/>
      <feComposite operator="in" in2="blur-13"/>
      <feComposite in="SourceGraphic"/>
    </filter>
    <filter id="Ellipse_6-3" x="397.147" y="463.498" width="103.349" height="100.497" filterUnits="userSpaceOnUse">
      <feOffset dx="-10" dy="7" input="SourceAlpha"/>
      <feGaussianBlur stdDeviation="6" result="blur-14"/>
      <feFlood flood-opacity="0.161"/>
      <feComposite operator="in" in2="blur-14"/>
      <feComposite in="SourceGraphic"/>
    </filter>
    <clipPath id="clip-_0登入頁_4">
      <rect width="1366" height="768"/>
    </clipPath>
  </defs>
  <g id="_0登入頁_4" data-name="0登入頁 – 4" clip-path="url(#clip-_0登入頁_4)">
    <rect width="1366" height="768" fill="#ebde9e"/>
    <path id="Path_94" data-name="Path 94" d="M3974.579-11362.164s44.118-101.857,189.226-108.774,236.7,132.672,236.7,132.672l300.708,5.733s54.184-143.762,187.634-146.583,205.417,140.85,205.417,140.85l14.708,56.228-600.229,122.294-483.556,26.708Z" transform="translate(-3902 11864)" fill="#8ba863"/>
    <g transform="matrix(1, 0, 0, 1, 0, 0)" filter="url(#Path_93)">
      <path id="Path_93-2" data-name="Path 93" d="M3757.509-11453.9c119.694-43.857,255.186,19.989,346.364,121.764s138.882,162.639,138.882,162.639,46.7-245.044,292.7-284.4,396.23,176.585,396.23,176.585,29.229-189.113,254-218.352,381.925,286.9,381.925,286.9l-31.065,129.744L4579-10919.146l-953.9-237.561S3637.814-11410.042,3757.509-11453.9Z" transform="translate(-3902 11864)" fill="#d9c33d"/>
    </g>
    <g transform="matrix(1, 0, 0, 1, 0, 0)" filter="url(#Path_92)">
      <path id="Path_92-2" data-name="Path 92" d="M3253-11089s122.839-206.444,367.429-221.906S4020.623-11089,4020.623-11089s125.535-261.264,408.078-283.756,476.1,310.333,476.1,310.333L3790.09-11031.5H3214.46Z" transform="translate(-3253 11857)" fill="#b3cd71"/>
    </g>
    <g id="草" transform="matrix(0.999, -0.035, 0.035, 0.999, -24.475, 16.916)">
      <g id="盆栽" transform="translate(-656.896 419.637) rotate(-16)">
        <g id="Group_668" data-name="Group 668" transform="translate(797.863 265.081)">
          <g id="Group_41" data-name="Group 41" transform="translate(81.071) rotate(42)">
            <g transform="matrix(0.91, -0.41, 0.41, 0.91, -408.61, -299.41)" filter="url(#Path_31)">
              <path id="Path_31-4" data-name="Path 31" d="M0,6.823s1.306,17.729,10.412,33.42S36.424,69.587,36.424,69.587l5.829-2.97S26.861,52.456,17.241,35.809C7.362,19.271,8.9,8.912,6.5,4.706,3.149-1.183,3.014.123,3.014.123Z" transform="translate(276.47 507.29) rotate(24)" fill="#96c45a"/>
            </g>
            <g transform="matrix(0.91, -0.41, 0.41, 0.91, -408.61, -299.41)" filter="url(#Ellipse_4)">
              <ellipse id="Ellipse_4-4" data-name="Ellipse 4" cx="30.874" cy="28.605" rx="30.874" ry="28.605" transform="matrix(0.99, 0.1, -0.1, 0.99, 278.41, 472.59)" fill="#96c45a"/>
            </g>
            <g transform="matrix(0.91, -0.41, 0.41, 0.91, -408.61, -299.41)" filter="url(#Ellipse_7)">
              <ellipse id="Ellipse_7-4" data-name="Ellipse 7" cx="26.417" cy="24.472" rx="26.417" ry="24.472" transform="matrix(0.99, 0.1, -0.1, 0.99, 280.14, 477.77)" fill="url(#radial-gradient)"/>
            </g>
            <g transform="matrix(0.91, -0.41, 0.41, 0.91, -408.61, -299.41)" filter="url(#Ellipse_6)">
              <ellipse id="Ellipse_6-4" data-name="Ellipse 6" cx="26.277" cy="23.33" rx="26.277" ry="23.33" transform="translate(238.61 470.69) rotate(25)" fill="#96c45a"/>
            </g>
          </g>
        </g>
      </g>
      <g id="盆栽-2" data-name="盆栽" transform="translate(-571.406 511.782) rotate(-16)">
        <g id="Group_668-2" data-name="Group 668" transform="translate(797.863 265.081)">
          <g id="Group_41-2" data-name="Group 41" transform="translate(81.071) rotate(42)">
            <g transform="matrix(0.91, -0.41, 0.41, 0.91, -525.85, -344.75)" filter="url(#Path_31-2)">
              <path id="Path_31-5" data-name="Path 31" d="M0,6.823s1.306,17.729,10.412,33.42S36.424,69.587,36.424,69.587l5.829-2.97S26.861,52.456,17.241,35.809C7.362,19.271,8.9,8.912,6.5,4.706,3.149-1.183,3.014.123,3.014.123Z" transform="translate(365.13 596.4) rotate(24)" fill="#96c45a"/>
            </g>
            <g transform="matrix(0.91, -0.41, 0.41, 0.91, -525.85, -344.75)" filter="url(#Ellipse_4-2)">
              <ellipse id="Ellipse_4-5" data-name="Ellipse 4" cx="30.874" cy="28.605" rx="30.874" ry="28.605" transform="matrix(0.99, 0.1, -0.1, 0.99, 367.06, 561.69)" fill="#96c45a"/>
            </g>
            <g transform="matrix(0.91, -0.41, 0.41, 0.91, -525.85, -344.75)" filter="url(#Ellipse_7-2)">
              <ellipse id="Ellipse_7-5" data-name="Ellipse 7" cx="26.417" cy="24.472" rx="26.417" ry="24.472" transform="matrix(0.99, 0.1, -0.1, 0.99, 368.79, 566.88)" fill="url(#radial-gradient)"/>
            </g>
            <g transform="matrix(0.91, -0.41, 0.41, 0.91, -525.85, -344.75)" filter="url(#Ellipse_6-2)">
              <ellipse id="Ellipse_6-5" data-name="Ellipse 6" cx="26.277" cy="23.33" rx="26.277" ry="23.33" transform="translate(327.26 559.8) rotate(25)" fill="#96c45a"/>
            </g>
          </g>
        </g>
      </g>
      <g id="盆栽-3" data-name="盆栽" transform="translate(-450.896 430.637) rotate(-16)">
        <g id="Group_668-3" data-name="Group 668" transform="translate(797.863 265.081)">
          <g id="Group_41-3" data-name="Group 41" transform="translate(81.071) rotate(42)">
            <g transform="matrix(0.91, -0.41, 0.41, 0.91, -598.59, -218.99)" filter="url(#Path_31-3)">
              <path id="Path_31-6" data-name="Path 31" d="M0,6.823s1.306,17.729,10.412,33.42S36.424,69.587,36.424,69.587l5.829-2.97S26.861,52.456,17.241,35.809C7.362,19.271,8.9,8.912,6.5,4.706,3.149-1.183,3.014.123,3.014.123Z" transform="translate(482.73 511.1) rotate(24)" fill="#96c45a"/>
            </g>
            <g transform="matrix(0.91, -0.41, 0.41, 0.91, -598.59, -218.99)" filter="url(#Ellipse_4-3)">
              <ellipse id="Ellipse_4-6" data-name="Ellipse 4" cx="30.874" cy="28.605" rx="30.874" ry="28.605" transform="matrix(0.99, 0.1, -0.1, 0.99, 484.67, 476.39)" fill="#96c45a"/>
            </g>
            <g transform="matrix(0.91, -0.41, 0.41, 0.91, -598.59, -218.99)" filter="url(#Ellipse_7-3)">
              <ellipse id="Ellipse_7-6" data-name="Ellipse 7" cx="26.417" cy="24.472" rx="26.417" ry="24.472" transform="matrix(0.99, 0.1, -0.1, 0.99, 486.4, 481.58)" fill="url(#radial-gradient)"/>
            </g>
            <g transform="matrix(0.91, -0.41, 0.41, 0.91, -598.59, -218.99)" filter="url(#Ellipse_6-3)">
              <ellipse id="Ellipse_6-6" data-name="Ellipse 6" cx="26.277" cy="23.33" rx="26.277" ry="23.33" transform="translate(444.87 474.5) rotate(25)" fill="#96c45a"/>
            </g>
          </g>
        </g>
      </g>
    </g>
  </g>
</svg>
