<svg xmlns="http://www.w3.org/2000/svg" width="14" height="14" viewBox="0 0 14 14">
    <g>
        <g fill="none" stroke="#767676" stroke-width="1.5px" transform="translate(-.42 -.42) translate(.42 .42)">
            <circle cx="7" cy="7" r="7" stroke="none"/>
            <circle cx="7" cy="7" r="6.25"/>
        </g>
        <path fill="#767676" d="M4.488 0a2.9 2.9 0 0 0-2.622 1.517.426.426 0 0 0 .079.548l.655.545a.345.345 0 0 0 .507-.069c.382-.523.665-.824 1.261-.824.469 0 1.049.33 1.049.827 0 .376-.284.569-.747.853a2.008 2.008 0 0 0-1.253 1.774v.163a.384.384 0 0 0 .366.4h1.1a.384.384 0 0 0 .366-.4v-.1c0-.714 1.909-.744 1.909-2.677A2.712 2.712 0 0 0 4.488 0zm-.153 6.225A1.11 1.11 0 0 0 3.28 7.379a1.11 1.11 0 0 0 1.055 1.155 1.11 1.11 0 0 0 1.056-1.155 1.11 1.11 0 0 0-1.056-1.154z" transform="translate(-.42 -.42) translate(3.008 3.306)"/>
    </g>
</svg>
