<svg xmlns="http://www.w3.org/2000/svg" width="29.274" height="22.764" viewBox="0 0 29.274 22.764">
    <path fill="#fff" d="M14.248 8.159l-9.37 7.717V24.2a.813.813 0 0 0 .813.813L11.386 25a.813.813 0 0 0 .809-.813v-4.861a.813.813 0 0 1 .813-.813h3.252a.813.813 0 0 1 .813.813v4.86a.813.813 0 0 0 .813.816l5.693.016a.813.813 0 0 0 .813-.813v-8.334l-9.367-7.712a.619.619 0 0 0-.777 0zm14.8 5.245L24.8 9.9V2.863a.61.61 0 0 0-.61-.61h-2.846a.61.61 0 0 0-.61.61v3.69l-4.55-3.743a2.439 2.439 0 0 0-3.1 0L.22 13.4a.61.61 0 0 0-.081.859l1.3 1.575a.61.61 0 0 0 .859.083l11.95-9.841a.619.619 0 0 1 .778 0l11.954 9.845a.61.61 0 0 0 .859-.081l1.3-1.575a.61.61 0 0 0-.086-.86z" transform="translate(.001 -2.254)"/>
</svg>
