<svg xmlns="http://www.w3.org/2000/svg" id="Group_36" width="24.434" height="28.737" viewBox="0 0 24.434 28.737">
    <defs>
        <style>
            .cls-2{fill:none}.cls-6{fill:#96c45a}.cls-4,.cls-6{stroke:none}
        </style>
    </defs>
    <g id="Ellipse_3" fill="none" stroke="#96c45a" stroke-width="2px" transform="translate(7.737 .098)">
        <ellipse cx="8.348" cy="7.33" class="cls-4" rx="8.348" ry="7.33"/>
        <ellipse cx="8.348" cy="7.33" rx="7.348" ry="6.33"/>
    </g>
    <g id="Path_27" class="cls-2">
        <path d="M4.485 0a5.5 5.5 0 0 1 3.172 1.314c-.1-.127-.859.539-1.5 1.434a7.186 7.186 0 0 0-.688 1.738 10.144 10.144 0 0 0-.162 1.4l.162 1.038c.044.118.635 2.043-.982 2.043a4.485 4.485 0 0 1 0-8.97z" class="cls-4" transform="translate(3.655 1.661)"/>
        <path d="M4.263 2.01C2.996 2.123 2 3.19 2 4.485c0 .986.577 1.84 1.412 2.241l-.082-.528-.034-.213.013-.214c.084-1.41.21-1.787.283-1.98l.046-.154c.155-.523.34-1.104.625-1.627M4.485 0c1.197 0 2.703.832 3.167 1.309-.008-.007-.02-.01-.033-.01-.188 0-.874.627-1.464 1.449-.374.519-.595 1.496-.687 1.737-.093.241-.162 1.405-.162 1.405l.162 1.038c.044.117.635 2.042-.983 2.042C2.008 8.97 0 6.962 0 4.485 0 2.008 2.008 0 4.485 0zm3.167 1.309l.005.005-.005-.005z" class="cls-6" transform="translate(3.655 1.661)"/>
    </g>
    <g id="Path_26" class="cls-2">
        <path d="M6.312 0a5.914 5.914 0 0 1 5.078 2.7c-.2-.179-1 .67-1.019.741-.135.164-1.3 2.647-1.3 2.706a4.637 4.637 0 0 0 0 2.292C9.393 9.615 10.089 10.965 10 11a5.042 5.042 0 0 1-3.686 1.295A6.231 6.231 0 0 1 0 6.146 6.231 6.231 0 0 1 6.312 0z" class="cls-4"/>
        <path d="M6.312 2C3.935 2 2 3.86 2 6.146c0 2.287 1.935 4.147 4.312 4.147.466 0 .877-.058 1.22-.149-.141-.37-.283-.774-.393-1.171-.275-.994-.277-2.229-.054-3.13.051-.347.227-.716.778-1.871.34-.713.54-1.114.673-1.358C7.924 2.252 7.141 2 6.312 2m0-2c2.21 0 4.258 1.195 5.078 2.7-.02-.018-.044-.025-.073-.025-.274 0-.926.7-.946.765-.134.164-1.304 2.647-1.304 2.706-.004 0-.324 1.123 0 2.293.326 1.176 1.022 2.526.932 2.559-.754.811-2.104 1.295-3.687 1.295C2.826 12.293 0 9.54 0 6.146 0 2.752 2.826 0 6.312 0z" class="cls-6"/>
    </g>
    <path id="Path_25" fill="#96c45a" d="M-.606 0h1.913l.361 6.413s-.161 3.923 0 6.846a28.33 28.33 0 0 0 .644 4.847H-1.01s-.064-.67 0-3.751c0-2.4.7-5.718.895-9.492S-.606 0-.606 0z" transform="translate(9 10.632)"/>
</svg>
