<svg xmlns="http://www.w3.org/2000/svg" width="71.152" height="72.399" viewBox="0 0 71.152 72.399">
    <defs>
        <filter id="Ellipse_3" width="52.121" height="48.691" x="19.032" y=".165" filterUnits="userSpaceOnUse">
            <feOffset dx="6" dy="6"/>
            <feGaussianBlur result="blur" stdDeviation="4"/>
            <feFlood flood-opacity=".161"/>
            <feComposite in2="blur" operator="in"/>
            <feComposite in="SourceGraphic"/>
        </filter>
        <filter id="Path_27" width="36.895" height="39.108" x="12.155" y="2.798" filterUnits="userSpaceOnUse">
            <feOffset dx="6" dy="6"/>
            <feGaussianBlur result="blur-2" stdDeviation="4"/>
            <feFlood flood-opacity=".161"/>
            <feComposite in2="blur-2" operator="in"/>
            <feComposite in="SourceGraphic"/>
        </filter>
        <filter id="Path_26" width="43.183" height="44.703" x="0" y="0" filterUnits="userSpaceOnUse">
            <feOffset dy="6"/>
            <feGaussianBlur result="blur-3" stdDeviation="4"/>
            <feFlood flood-opacity=".161"/>
            <feComposite in2="blur-3" operator="in"/>
            <feComposite in="SourceGraphic"/>
        </filter>
        <filter id="Path_25" width="29.643" height="54.493" x="19.408" y="17.906" filterUnits="userSpaceOnUse">
            <feOffset dx="6" dy="6"/>
            <feGaussianBlur result="blur-4" stdDeviation="4"/>
            <feFlood flood-opacity=".161"/>
            <feComposite in2="blur-4" operator="in"/>
            <feComposite in="SourceGraphic"/>
        </filter>
        <style>
            .cls-2{fill:none}.cls-6{fill:#96c45a}.cls-4,.cls-6{stroke:none}
        </style>
    </defs>
    <g id="Group_36">
        <g filter="url(#Ellipse_3)" transform="translate(12 6) translate(-12 -6)">
            <g id="Ellipse_3-2" fill="none" stroke="#96c45a" stroke-width="3px" transform="translate(25.03 6.16)">
                <ellipse cx="14.06" cy="12.346" class="cls-4" rx="14.06" ry="12.346"/>
                <ellipse cx="14.06" cy="12.346" rx="12.56" ry="10.846"/>
            </g>
        </g>
        <g filter="url(#Path_27)" transform="translate(12 6) translate(-12 -6)">
            <g id="Path_27-2" class="cls-2">
                <path d="M7.554 0A9.257 9.257 0 0 1 12.9 2.213c-.171-.213-1.447.907-2.529 2.415a12.1 12.1 0 0 0-1.162 2.926 17.085 17.085 0 0 0-.273 2.365l.273 1.748c.075.2 1.07 3.44-1.655 3.44A7.554 7.554 0 0 1 7.554 0z" class="cls-4" transform="translate(18.16 8.8)"/>
                <path d="M7.554 3C5.043 3 3 5.043 3 7.554c0 2.043 1.353 3.777 3.21 4.351l-.238-1.524-.05-.318.02-.322c.138-2.334.346-2.948.455-3.234.018-.055.055-.182.084-.277.31-1.049.694-2.24 1.35-3.211C7.735 3.007 7.641 3 7.554 3m0-3c2.016 0 4.553 1.401 5.333 2.204-.014-.012-.032-.018-.056-.018-.316 0-1.472 1.058-2.465 2.441-.63.875-1.001 2.521-1.157 2.927-.157.406-.273 2.365-.273 2.365l.273 1.748c.074.198 1.07 3.44-1.655 3.44C3.382 15.108 0 11.727 0 7.555 0 3.382 3.382 0 7.554 0zm5.333 2.204c.003.003.006.005.008.009l-.008-.009z" class="cls-6" transform="translate(18.16 8.8)"/>
            </g>
        </g>
        <g filter="url(#Path_26)" transform="translate(12 6) translate(-12 -6)">
            <g id="Path_26-2" class="cls-2">
                <path d="M10.632 0c3.723 0 7.17 2.013 8.552 4.546-.343-.3-1.679 1.128-1.716 1.248-.227.276-2.2 4.458-2.2 4.558a7.81 7.81 0 0 0 0 3.861c.549 1.982 1.721 4.256 1.569 4.31a8.492 8.492 0 0 1-6.205 2.177A10.494 10.494 0 0 1 0 10.352 10.494 10.494 0 0 1 10.632 0z" class="cls-4" transform="translate(12 6)"/>
                <path d="M10.632 3C6.423 3 3 6.298 3 10.352s3.423 7.351 7.632 7.351c1.028 0 1.88-.154 2.542-.378-.28-.712-.576-1.521-.795-2.312-.323-1.168-.426-2.426-.304-3.739.063-.676.157-1.182.26-1.567.119-.506.436-1.17 1.24-2.86.755-1.581 1.095-2.236 1.3-2.574C13.77 3.536 12.279 3 10.633 3m0-3c3.722 0 7.17 2.013 8.551 4.546-.032-.028-.074-.041-.122-.041-.463 0-1.56 1.18-1.594 1.29-.226.275-2.197 4.457-2.197 4.557-.006 0-.546 1.89 0 3.86.55 1.982 1.721 4.256 1.57 4.31-1.27 1.367-3.543 2.181-6.208 2.181C4.76 20.703 0 16.07 0 10.352 0 4.635 4.76 0 10.632 0z" class="cls-6" transform="translate(12 6)"/>
            </g>
        </g>
        <g filter="url(#Path_25)" transform="translate(12 6) translate(-12 -6)">
            <path id="Path_25-2" fill="#96c45a" d="M-.31 0h3.221l.609 10.8s-.271 6.607 0 11.53a47.713 47.713 0 0 0 1.08 8.163H-1s-.108-1.128 0-6.317C-1 20.136.178 14.545.507 8.189S-.31 0-.31 0z" transform="translate(26.45 23.91)"/>
        </g>
    </g>
</svg>
