<svg xmlns="http://www.w3.org/2000/svg" width="21" height="21" viewBox="0 0 21 21">
    <g>
        <g fill="none" stroke="#fcfcfc" stroke-width="2px" transform="translate(-25 -568) translate(25 568)">
            <circle cx="10.5" cy="10.5" r="10.5" stroke="none"/>
            <circle cx="10.5" cy="10.5" r="9.5"/>
        </g>
        <path fill="#fcfcfc" d="M6.319 0A4.963 4.963 0 0 0 1.91 2.332a.615.615 0 0 0 .133.842l1.1.838A.615.615 0 0 0 4 3.905a2.485 2.485 0 0 1 2.12-1.267c.788 0 1.763.507 1.763 1.271 0 .578-.477.874-1.255 1.311-.907.509-2.108 1.142-2.108 2.725V8.2a.615.615 0 0 0 .615.615H6.99A.615.615 0 0 0 7.6 8.2v-.151c0-1.1 3.209-1.144 3.209-4.114C10.814 1.7 8.493 0 6.319 0zm-.257 9.566a1.774 1.774 0 1 0 1.774 1.774 1.776 1.776 0 0 0-1.774-1.774z" transform="translate(-25 -568) translate(29.5 572.386)"/>
    </g>
</svg>
