<svg xmlns="http://www.w3.org/2000/svg" width="17.128" height="17.452" viewBox="0 0 17.128 17.452">
    <defs>
        <style>
            .cls-1{fill:#fff}
        </style>
    </defs>
    <g id="Icon_ionic-ios-menu">
        <path id="Path_65" d="M21.057 2.25H.916A1.04 1.04 0 0 1 0 1.125 1.04 1.04 0 0 1 .916 0h20.141a1.04 1.04 0 0 1 .916 1.125 1.04 1.04 0 0 1-.916 1.125z" class="cls-1" transform="rotate(-45 18.755 7.768)"/>
        <path id="Path_66" d="M21.057 2.25H.916A1.04 1.04 0 0 1 0 1.125 1.04 1.04 0 0 1 .916 0h20.141a1.04 1.04 0 0 1 .916 1.125 1.04 1.04 0 0 1-.916 1.125z" class="cls-1" transform="rotate(45 .403 2.083)"/>
    </g>
</svg>
