<svg xmlns="http://www.w3.org/2000/svg" width="204" height="47" viewBox="0 0 204 47">
    <defs>
        <style>
            .cls-2{fill:#3780ff}.cls-4{fill:#fa3913}
        </style>
    </defs>
    <g id="Group_23" transform="translate(-858 -551)">
        <g id="Group_22" transform="translate(0 -52)">
            <g id="Rectangle_13" fill="#fff" stroke="rgba(55,128,255,0.64)" stroke-width="3px" transform="translate(858 603)">
                <rect width="204" height="47" stroke="none" rx="11"/>
                <rect width="201" height="44" x="1.5" y="1.5" fill="none" rx="9.5"/>
            </g>
        </g>
        <g id="google-2015" transform="translate(915.003 563)">
            <path id="Path_12" d="M9.727 0h.7a9.586 9.586 0 0 1 6.561 2.77c-.636.649-1.286 1.272-1.909 1.922A7.169 7.169 0 0 0 3.046 9.013a7.379 7.379 0 0 0 1.6 5.7 7.1 7.1 0 0 0 5.174 2.545 6.881 6.881 0 0 0 5.142-1.758 5.614 5.614 0 0 0 1.71-3.658c-2.2 0-4.4.013-6.6 0V9.106h9.265A9.394 9.394 0 0 1 16.9 17.43a9.059 9.059 0 0 1-5.633 2.532A10.346 10.346 0 0 1 5.339 18.8a10.2 10.2 0 0 1-4.732-5.4 9.773 9.773 0 0 1-.066-6.613 10.091 10.091 0 0 1 3.645-4.838A10.406 10.406 0 0 1 9.727 0z" class="cls-2"/>
            <path id="Path_13" fill="#38b137" d="M474.4 5.2h2.837v18.928c-.941 0-1.9.013-2.837-.013.013-6.296 0-12.606 0-18.915z" transform="translate(-405.552 -4.511)"/>
            <path id="Path_14" d="M159.482 53.931a6.661 6.661 0 0 1 5.09 1.087 6.226 6.226 0 0 1 2.505 3.977 6.41 6.41 0 0 1-6.734 7.688 6.451 6.451 0 0 1-4.825-2.585 6.626 6.626 0 0 1-.875-6.018 6.29 6.29 0 0 1 4.838-4.149m.4 2.518a3.564 3.564 0 0 0-1.856 1.18 4.2 4.2 0 0 0 .212 5.474 3.53 3.53 0 0 0 3.155.981 3.57 3.57 0 0 0 2.465-1.816 4.192 4.192 0 0 0-.716-4.984 3.576 3.576 0 0 0-3.261-.835z" class="cls-4" transform="translate(-131.598 -46.68)"/>
            <path id="Path_15" fill="#fcbd06" d="M265.509 53.924a6.445 6.445 0 0 1 6.309 10.376 6.556 6.556 0 0 1-10.273-.212 6.69 6.69 0 0 1-.835-6.15 6.3 6.3 0 0 1 4.8-4.016m.4 2.518a3.624 3.624 0 0 0-1.856 1.166 4.21 4.21 0 0 0 .146 5.421 3.547 3.547 0 0 0 3.234 1.047 3.636 3.636 0 0 0 2.465-1.816 4.215 4.215 0 0 0-.742-5 3.553 3.553 0 0 0-3.251-.815z" transform="translate(-222.038 -46.674)"/>
            <path id="Path_16" d="M369.068 54.69a5.419 5.419 0 0 1 5.2-.4 4.951 4.951 0 0 1 1.352.994c.013-.358 0-.729.013-1.1.888.013 1.776 0 2.678.013v11.694a6.987 6.987 0 0 1-1.736 4.918 6.319 6.319 0 0 1-5.448 1.564 6.164 6.164 0 0 1-4.639-3.7c.8-.384 1.63-.689 2.452-1.047a3.645 3.645 0 0 0 2.585 2.227 3.435 3.435 0 0 0 3.314-1.06 5.3 5.3 0 0 0 .782-3.619 4.706 4.706 0 0 1-2.161 1.326 5.825 5.825 0 0 1-5.289-1.365 6.525 6.525 0 0 1 .9-10.445m2.744 1.7a3.487 3.487 0 0 0-2.081 1.206 4.229 4.229 0 0 0 .013 5.315 3.468 3.468 0 0 0 2.982 1.219 3.368 3.368 0 0 0 2.532-1.683 4.474 4.474 0 0 0-.451-5.01 3.262 3.262 0 0 0-2.998-1.05z" class="cls-2" transform="translate(-312.194 -46.671)"/>
            <path id="Path_17" d="M508.348 55.312a5.982 5.982 0 0 1 6.084-1.206 6.847 6.847 0 0 1 3.791 4.467c-2.876 1.193-5.739 2.373-8.616 3.566a3.418 3.418 0 0 0 1.829 1.723 3.713 3.713 0 0 0 3.5-.5 5.648 5.648 0 0 0 .981-1.047c.729.49 1.458.968 2.187 1.458a6.49 6.49 0 0 1-10.246.649 6.8 6.8 0 0 1 .49-9.106m1.418 2.452a3.785 3.785 0 0 0-.623 2.227q2.883-1.193 5.766-2.4a2.384 2.384 0 0 0-1.869-1.312 3.387 3.387 0 0 0-3.274 1.481z" class="cls-4" transform="translate(-431.996 -46.617)"/>
        </g>
    </g>
</svg>
