<svg xmlns="http://www.w3.org/2000/svg" id="Group_36" width="31.177" height="36.667" viewBox="0 0 31.177 36.667">
    <defs>
        <style>
            .cls-2{fill:none}.cls-6{fill:#fff}.cls-4,.cls-6{stroke:none}
        </style>
    </defs>
    <g id="Ellipse_3" fill="none" stroke="#fff" stroke-width="2px" transform="translate(9.873 .125)">
        <ellipse cx="10.652" cy="9.353" class="cls-4" rx="10.652" ry="9.353"/>
        <ellipse cx="10.652" cy="9.353" rx="9.652" ry="8.353"/>
    </g>
    <g id="Path_27" class="cls-2">
        <path d="M5.723 0A7.013 7.013 0 0 1 9.77 1.676c-.13-.162-1.1.688-1.916 1.83a9.169 9.169 0 0 0-.877 2.217 12.944 12.944 0 0 0-.207 1.792l.207 1.325c.057.15.81 2.607-1.254 2.607A5.723 5.723 0 0 1 5.723 0z" class="cls-4" transform="translate(4.663 2.12)"/>
        <path d="M5.723 2C3.67 2 2 3.67 2 5.723c0 1.82 1.314 3.34 3.044 3.66l-.012-.03L5 9.147l-.206-1.324-.033-.212.012-.215c.104-1.744.254-2.174.33-2.375.014-.042.045-.146.068-.224.24-.813.54-1.74 1.058-2.458.056-.077.113-.155.171-.232C6.16 2.04 5.927 2 5.723 2m0-2c1.527 0 3.45 1.061 4.04 1.67-.01-.01-.024-.014-.042-.014-.24 0-1.115.802-1.867 1.85-.478.662-.76 1.91-.878 2.217-.118.307-.206 1.792-.206 1.792l.206 1.324c.057.15.81 2.607-1.253 2.607C2.563 11.446 0 8.884 0 5.723 0 2.563 2.562 0 5.723 0zm4.04 1.67l.007.006-.007-.006z" class="cls-6" transform="translate(4.663 2.12)"/>
    </g>
    <g id="Path_26" class="cls-2">
        <path d="M8.054 0a7.546 7.546 0 0 1 6.479 3.444c-.26-.228-1.272.855-1.3.945-.172.209-1.664 3.377-1.664 3.453a5.917 5.917 0 0 0 0 2.925c.416 1.5 1.3 3.224 1.189 3.266a6.434 6.434 0 0 1-4.7 1.652A7.951 7.951 0 0 1 0 7.842 7.951 7.951 0 0 1 8.054 0z" class="cls-4"/>
        <path d="M8.054 2C4.716 2 2 4.62 2 7.842c0 3.222 2.716 5.843 6.054 5.843.956 0 1.719-.167 2.284-.4-.242-.597-.505-1.292-.697-1.984-.236-.853-.31-1.773-.221-2.735.045-.49.112-.854.185-1.127.073-.338.292-.803.926-2.134.638-1.338.878-1.786 1.02-2.001.027-.042.058-.087.092-.134C10.741 2.503 9.468 2 8.054 2m0-2c2.82 0 5.432 1.525 6.48 3.444-.025-.021-.057-.031-.094-.031-.35 0-1.181.894-1.207.977-.171.209-1.664 3.377-1.664 3.452-.005 0-.414 1.433 0 2.925.416 1.502 1.304 3.224 1.189 3.266-.962 1.035-2.684 1.652-4.704 1.652C3.606 15.685 0 12.174 0 7.842 0 3.512 3.606 0 8.054 0z" class="cls-6"/>
    </g>
    <path id="Path_25" fill="#fff" d="M-.486 0h2.44l.461 8.182s-.205 5.005 0 8.735a36.147 36.147 0 0 0 .822 6.183H-1s-.082-.855 0-4.786C-1 15.255-.11 11.02.139 6.2S-.486 0-.486 0z" transform="translate(11.196 13.565)"/>
</svg>
